HIERARCHY
ROOT RootJoint
{
    OFFSET   0.000000   0.000000   0.000000
    CHANNELS 6 Xposition Yposition Zposition Xrotation Yrotation Zrotation
    JOINT pelvis_lowerback
    {
        OFFSET   0.000000   0.093605   0.000000
        CHANNELS 3 Xrotation Yrotation Zrotation
        JOINT lowerback_torso
        {
            OFFSET   0.000000   0.100000   0.000000
            CHANNELS 3 Xrotation Yrotation Zrotation
            JOINT torso_head
            {
                OFFSET   0.000000   0.282350   0.000000
                CHANNELS 3 Xrotation Yrotation Zrotation
                End Site
                {
                    OFFSET   0.000000   0.192650   0.000000
                }
            }
            JOINT rTorso_Clavicle
            {
                OFFSET  -0.001000   0.157500   0.000000
                CHANNELS 3 Xrotation Yrotation Zrotation
                JOINT rShoulder
                {
                    OFFSET  -0.117647   0.000000   0.000000
                    CHANNELS 3 Xrotation Yrotation Zrotation
                    JOINT rElbow
                    {
                        OFFSET  -0.245000   0.000000   0.000000
                        CHANNELS 3 Xrotation Yrotation Zrotation
                        JOINT rWrist
                        {
                            OFFSET  -0.240000   0.000000   0.000000
                            CHANNELS 3 Xrotation Yrotation Zrotation
                            End Site
                            {
                                OFFSET  -0.116353  -0.002500   0.000000
                            }
                        }
                    }
                }
            }
            JOINT lTorso_Clavicle
            {
                OFFSET   0.001000   0.157500   0.000000
                CHANNELS 3 Xrotation Yrotation Zrotation
                JOINT lShoulder
                {
                    OFFSET   0.117647   0.000000   0.000000
                    CHANNELS 3 Xrotation Yrotation Zrotation
                    JOINT lElbow
                    {
                        OFFSET   0.245000   0.000000   0.000000
                        CHANNELS 3 Xrotation Yrotation Zrotation
                        JOINT lWrist
                        {
                            OFFSET   0.240000   0.000000   0.000000
                            CHANNELS 3 Xrotation Yrotation Zrotation
                            End Site
                            {
                                OFFSET   0.116353  -0.002500   0.000000
                            }
                        }
                    }
                }
            }
        }
    }
    JOINT rHip
    {
        OFFSET  -0.100000  -0.051395   0.000000
        CHANNELS 3 Xrotation Yrotation Zrotation
        JOINT rKnee
        {
            OFFSET   0.000000  -0.410000   0.000000
            CHANNELS 3 Xrotation Yrotation Zrotation
            JOINT rAnkle
            {
                OFFSET   0.000000  -0.390000   0.000000
                CHANNELS 3 Xrotation Yrotation Zrotation
                JOINT rToeJoint
                {
                    OFFSET   0.000000  -0.050000   0.130000
                    CHANNELS 3 Xrotation Yrotation Zrotation
                    End Site
                    {
                        OFFSET  -0.010000   0.002000   0.060000
                    }
                }
            }
        }
    }
    JOINT lHip
    {
        OFFSET   0.100000  -0.051395   0.000000
        CHANNELS 3 Xrotation Yrotation Zrotation
        JOINT lKnee
        {
            OFFSET   0.000000  -0.410000   0.000000
            CHANNELS 3 Xrotation Yrotation Zrotation
            JOINT lAnkle
            {
                OFFSET   0.000000  -0.390000   0.000000
                CHANNELS 3 Xrotation Yrotation Zrotation
                JOINT lToeJoint
                {
                    OFFSET   0.000000  -0.050000   0.130000
                    CHANNELS 3 Xrotation Yrotation Zrotation
                    End Site
                    {
                        OFFSET   0.010000   0.002000   0.060000
                    }
                }
            }
        }
    }
}
MOTION
Frames: 8
Frame Time:   0.008333
 -2.376719   0.925631   3.975860   0.000000   0.000000   0.000000   0.000000   0.000000   0.000000   0.000000   0.000000   0.000000   0.000000   0.000000   0.000000   0.000000   0.000000   0.000000   0.000000   0.000000   0.000000   0.000000   0.000000   0.000000   0.000000   0.000000   0.000000   0.000000   0.000000   0.000000   0.000000   0.000000   0.000000   0.000000   0.000000   0.000000   0.000000   0.000000   0.000000   0.000000   0.000000   0.000000   0.000000   0.000000   0.000000   0.000000   0.000000   0.000000   0.000000   0.000000   0.000000   0.000000   0.000000   0.000000   0.000000   0.000000   0.000000   0.000000   0.000000   0.000000   0.000000   0.000000   0.000000
 -2.376918   0.924828   3.974108   0.074287  -0.042470  -0.310194  -0.022930   0.056881   0.346020  -0.199268  -0.147423   0.034653   0.164533  -0.447154   0.124271  -0.654278   0.113883  -1.052124  -2.251875   0.993599   1.706682   0.017166   3.213205   0.084524  -0.225688  -3.237364  -1.133060  -0.602386   0.314020   0.886853  -1.625990  -1.120832  -1.984592   0.026484  -3.233481  -0.065551  -0.221653   3.066160   1.358632  -0.895744  -0.374434   0.425533   2.177697  -0.002384  -0.007770  -1.661620  -0.691353  -0.057461   0.413309  -0.000217  -0.003983  -0.454557   0.644974   0.365014   0.214347  -0.000096   0.001132  -0.620928   0.734676  -0.054361   0.491025   0.000040   0.005738
 -2.377153   0.924871   3.971723   0.021521  -0.050961  -0.425507  -0.063507   0.093911   0.522875  -0.396748  -0.297620   0.007099   0.314702  -0.887796   0.264332  -1.268788   0.752207  -1.798988  -4.542126   2.416074   3.624951   0.035558   6.664176   0.160630  -0.566793  -5.234756  -1.997500  -1.171611   0.110746   1.433571  -3.303376  -2.657706  -4.216519   0.059536  -6.702263  -0.124980  -0.533311   4.871192   2.377529  -1.677544  -0.759288   0.703917   4.451989  -0.006026  -0.013513  -3.205139  -1.346909  -0.133228   0.780532  -0.000543  -0.006511  -0.823117   1.287564   0.561520   0.748805  -0.000387   0.003887  -0.878174   1.434512  -0.100844   0.898363   0.000019   0.009346
 -2.377520   0.925043   3.968758  -0.052486   0.010853  -0.549635  -0.122253   0.110240   0.724238  -0.607402  -0.450538  -0.035782   0.410436  -1.301103   0.397089  -1.815216   1.713043  -2.355400  -6.876840   4.064417   5.699975   0.051046  10.224408   0.223079  -0.910909  -6.435032  -2.548006  -1.686419  -0.447170   1.739471  -5.045482  -4.430029  -6.644615   0.091756 -10.282134  -0.173672  -0.841603   5.877978   2.989273  -2.383326  -1.125956   1.050323   6.610125  -0.010270  -0.015580  -4.645019  -1.956380  -0.222113   1.119439  -0.000975  -0.007847  -1.165065   1.895320   0.780527   1.197458  -0.000565   0.005764  -1.235085   2.096217  -0.152371   1.306242   0.000079   0.012235
 -2.378026   0.925212   3.965295  -0.120197   0.129285  -0.648317  -0.165720   0.116162   0.899289  -0.808859  -0.602530  -0.099470   0.460294  -1.686823   0.527110  -2.296648   2.882223  -2.760542  -9.275630   5.850788   7.920539   0.062163  13.635206   0.265762  -1.237351  -7.052501  -2.864482  -2.148683  -1.247056   1.857659  -6.802792  -6.268666  -9.153828   0.120082 -13.938332  -0.209150  -1.132961   6.360820   3.276369  -3.031762  -1.471766   1.420296   8.627861  -0.014327  -0.015066  -5.990785  -2.521698  -0.320429   1.425694  -0.001410  -0.008305  -1.520544   2.463784   0.982576   1.579128  -0.000657   0.006936  -1.582179   2.714611  -0.197400   1.670366   0.000152   0.013957
 -2.378666   0.925340   3.961445  -0.165639   0.293507  -0.710259  -0.170842   0.121417   1.036526  -0.977629  -0.744769  -0.187622   0.475221  -2.047081   0.650454  -2.717631   4.193213  -3.047838 -11.648531   7.630668  10.190785   0.069535  16.875742   0.288296  -1.545869  -7.288346  -3.000757  -2.562801  -2.210053   1.842956  -8.534158  -8.067909 -11.654511   0.143071 -17.649336  -0.231018  -1.404034   6.486723   3.327158  -3.632666  -1.798290   1.796190  10.506944  -0.017832  -0.012960  -7.248879  -3.046090  -0.425472   1.703341  -0.001804  -0.008199  -1.903760   2.994985   1.153565   1.905162  -0.000690   0.007564  -1.905991   3.292716  -0.238225   2.001614   0.000232   0.014869
 -2.379437   0.925416   3.957324  -0.175916   0.501464  -0.736654  -0.126331   0.131943   1.138285  -1.100965  -0.871784  -0.297878   0.467274  -2.383699   0.765586  -3.086473   5.585092  -3.269458 -13.944896   9.323717  12.431551   0.074058  19.941796   0.293369  -1.834118  -7.268009  -3.031225  -2.936240  -3.267144   1.756844 -10.236845  -9.789381 -14.109123   0.160561 -21.397847  -0.241185  -1.654679   6.380659   3.237282  -4.191414  -2.107577   2.174107  12.254111  -0.020628  -0.009898  -8.425047  -3.532598  -0.534993   1.955941  -0.002135  -0.007734  -2.321375   3.490706   1.292631   2.179012  -0.000682   0.007767  -2.207509   3.833366  -0.276230   2.304454   0.000312   0.015204
 -2.380293   0.924988   3.952409  -0.102885   0.837810  -0.708370   0.003342   0.078023   1.130101  -1.155313  -0.998851  -0.369280   0.536872  -2.767306   0.931774  -3.561426   6.927249  -3.491553 -16.390768  11.118381  14.875357   0.079334  22.862964   0.291752  -2.140643  -7.295657  -3.297388  -3.222619  -4.262466   1.828867 -12.424445 -11.481922 -16.889949   0.173424 -25.163093  -0.252795  -1.964655   6.225661   3.242051  -4.773408  -2.622869   2.419579  13.858551  -0.021656  -0.008552  -9.596718  -4.143784  -0.787542   2.093995  -0.001860  -0.007083  -3.358696   4.008142   1.417436   3.304862  -0.001036   0.014869  -2.355204   4.354435  -0.407062   2.835081   0.000766   0.018617
